<svg width="200" height="60" viewBox="0 0 200 60" fill="none" xmlns="http://www.w3.org/2000/svg">
<path d="M41.715 32.3974C41.6582 32.4116 41.431 32.4116 41.3315 32.4116H34.0026V34.119H41.4594C41.5162 34.119 41.9565 34.119 42.0417 34.1048C43.5615 33.9625 44.2574 32.6962 44.2574 31.5864C44.2574 30.4482 43.533 29.2245 42.1553 29.0965C41.8855 29.068 41.6582 29.068 41.5588 29.068H36.6871C36.474 29.068 36.2326 29.0538 36.1473 29.0253C35.7638 28.9257 35.6218 28.5843 35.6218 28.2997C35.6218 28.0436 35.7639 27.7021 36.1615 27.5883C36.2752 27.5598 36.403 27.5456 36.6729 27.5456H43.7035V25.8667H36.5592C36.261 25.8667 36.0337 25.8809 35.8491 25.9094C34.6276 26.0801 33.7754 27.0619 33.7754 28.3139C33.7754 29.3384 34.4145 30.5335 35.8207 30.7327C36.0763 30.7612 36.4314 30.7612 36.5876 30.7612H41.3315C41.4168 30.7612 41.6298 30.7612 41.6724 30.7754C42.2121 30.8465 42.3968 31.2449 42.3968 31.6006C42.3968 31.9421 42.1837 32.312 41.715 32.3974Z" fill="white"/>
<path d="M27.8242 32.3974C27.7673 32.4116 27.5401 32.4116 27.4549 32.4116H20.1118V34.119H27.5685C27.6253 34.119 28.0656 34.119 28.1508 34.1048C29.6706 33.9625 30.3665 32.6962 30.3665 31.5864C30.3665 30.4482 29.6422 29.2245 28.2645 29.0965C27.9946 29.068 27.7673 29.068 27.6679 29.068H22.7962C22.5831 29.068 22.3417 29.0538 22.2565 29.0253C21.873 28.9257 21.7309 28.5843 21.7309 28.2997C21.7309 28.0436 21.873 27.7021 22.2707 27.5883C22.3843 27.5598 22.5121 27.5456 22.782 27.5456H29.8126V25.8667H22.6684C22.3701 25.8667 22.1428 25.8809 21.9582 25.9094C20.7367 26.0801 19.8845 27.0619 19.8845 28.3139C19.8845 29.3384 20.5237 30.5335 21.9298 30.7327C22.1855 30.7612 22.5405 30.7612 22.6968 30.7612H27.4407C27.5259 30.7612 27.7389 30.7612 27.7815 30.7754C28.3213 30.8465 28.5059 31.2449 28.5059 31.6006C28.5059 31.9421 28.3071 32.312 27.8242 32.3974Z" fill="white"/>
<path d="M16.2913 25.8098H14.4448V34.1617H16.2913V25.8098Z" fill="white"/>
<path d="M10.3684 34.1617V25.8098H8.52197V32.0417L2.37195 25.8098H0V34.1617H1.84643V27.9014L8.03906 34.1617H10.3684Z" fill="white"/>
<path d="M69.7522 25.8098V32.0417L63.6022 25.8098H61.2302V34.1617H63.0767V27.9014L69.2551 34.1617H71.5844V25.8098H69.7522Z" fill="white"/>
<path d="M51.6147 25.8098L46.4163 34.1617H48.6604L49.5836 32.6678H55.6484L56.5716 34.1617H58.8015L53.6031 25.8098H51.6147ZM54.6968 31.0885H50.5352L52.6231 27.7306L54.6968 31.0885Z" fill="white"/>
<path d="M10.2689 21.0719C13.9902 10.1873 24.245 2.87408 35.8064 2.87408C47.3679 2.87408 57.6369 10.1873 61.3439 21.0719L61.3723 21.1572H69.5108V20.1755L66.1304 19.7771C64.0425 19.5352 63.6022 18.6104 63.0341 17.4437L62.8921 17.1591C58.0061 6.74413 47.3679 0 35.8064 0C24.2308 0 13.6067 6.74413 8.72078 17.1876L8.57875 17.4721C8.01061 18.6388 7.57031 19.5637 5.48243 19.8055L2.10205 20.2039V21.1857H10.2263L10.2689 21.0719Z" fill="white"/>
<path d="M61.3723 38.8286L61.3439 38.9139C57.6226 49.7984 47.3679 57.0975 35.8064 57.0975C24.2449 57.0975 13.9759 49.7842 10.2689 38.8997L10.2405 38.8143H2.11621V39.7961L5.49659 40.1945C7.58447 40.4363 8.02477 41.3612 8.59291 42.5279L8.73494 42.8124C13.6209 53.2559 24.2591 60 35.8206 60C47.3821 60 58.0203 53.2559 62.9062 42.8267L63.0483 42.5421C63.6164 41.3754 64.0567 40.4506 66.1446 40.2087L69.525 39.8103V38.8286H61.3723Z" fill="white"/>
<path d="M137.482 35.1097L139.002 24.0854H143.504L142.105 35.1097H137.482Z" fill="white"/>
<path d="M146.182 35.1097C146.59 34.1574 146.851 33.6016 147.214 32.8399C148.429 33.6708 149.967 34.5547 151.305 33.7922C151.914 33.4463 152.325 32.5616 152.141 31.7307C152.02 31.2473 151.657 30.8998 151.29 30.7598C149.952 30.2749 148.069 30.414 147.579 28.6807C147.092 26.8806 148.128 24.9155 149.529 24.0854H156.948C156.642 24.7772 156.4 25.3901 156.004 26.1164C155.218 25.5574 153.614 25.0378 152.583 25.493C151.914 25.8397 151.549 26.6537 151.794 27.4862C151.975 27.9712 152.2 28.2656 152.629 28.4748C153.906 28.889 155.729 28.8029 156.415 30.0143C157.389 31.7444 156.339 34.1405 154.879 35.1097H146.182Z" fill="white"/>
<path d="M160.119 35.1095C160.573 31.5495 161.075 27.7152 161.533 24.1641H165.789C165.668 24.7174 165.548 25.4872 165.41 26.006H167.114C167.432 25.4181 167.736 24.6483 168.223 24.1641H172.908C173.211 24.7866 173.362 25.4237 173.514 26.1846H174.732C175.155 25.3046 175.42 24.7649 175.948 24.1641H180.997C181.422 24.9957 181.682 26.0615 181.583 26.9592C181.281 29.7776 180.846 32.4069 180.48 35.1095C180.48 35.1095 176.191 35.1095 176.069 35.1095C176.437 32.7817 176.55 31.334 176.819 28.9708C176.942 27.9067 176.151 27.1369 175.441 27.0742C174.649 27.005 173.698 27.5825 173.494 28.9218C173.153 31.1643 172.908 32.892 172.54 35.1095H168.102C168.346 33.2395 168.71 29.9215 168.831 28.9507C168.932 28.16 168.408 27.1908 167.48 27.1152C166.2 27.0106 165.666 28.1094 165.548 28.8517C165.17 31.2117 164.906 32.8582 164.574 35.1095H160.119Z" fill="white"/>
<path d="M126.716 25.6901C127.537 24.7088 127.744 24.4747 128.252 24.0854H133.407C133.974 25.1697 133.992 25.9467 133.873 27.1114C133.551 30.2974 133.386 32.079 132.985 35.1097H128.276C128.541 32.8584 128.738 31.5457 128.945 29.1656C129.001 28.5407 128.744 27.1355 127.477 27.0518C126.048 26.9618 125.41 28.3323 125.299 29.144C125.013 31.1999 124.829 33.1005 124.527 35.1097H119.904L121.303 24.0854C122.793 24.0854 124.163 24.0854 125.562 24.0854C125.501 24.6388 125.277 25.6901 125.277 25.6901H126.716Z" fill="white"/>
<path d="M160.119 35.1095C160.573 31.5495 161.075 27.7152 161.533 24.1641H165.789C165.668 24.7174 165.548 25.4872 165.41 26.006H167.114C167.432 25.4181 167.736 24.6483 168.223 24.1641H172.908C173.211 24.7866 173.362 25.4237 173.514 26.1846H174.732C175.155 25.3046 175.42 24.7649 175.948 24.1641H180.997C181.422 24.9957 181.682 26.0615 181.583 26.9592C181.281 29.7776 180.846 32.4069 180.48 35.1095C180.48 35.1095 176.191 35.1095 176.069 35.1095C176.437 32.7817 176.55 31.334 176.819 28.9708C176.942 27.9067 176.151 27.1369 175.441 27.0742C174.649 27.005 173.698 27.5825 173.494 28.9218C173.153 31.1643 172.908 32.892 172.54 35.1095H168.102C168.346 33.2395 168.71 29.9215 168.831 28.9507C168.932 28.16 168.408 27.1908 167.48 27.1152C166.2 27.0106 165.666 28.1094 165.548 28.8517C165.17 31.2117 164.906 32.8582 164.574 35.1095H160.119Z" fill="white"/>
<path d="M190.416 31.8737L190.921 27.5303C191.033 26.7195 191.672 25.3465 193.101 25.4365C194.368 25.5186 194.627 26.927 194.574 27.5519L194.067 31.8946C193.956 32.7054 193.319 34.076 191.89 33.9859C190.623 33.9054 190.362 32.4979 190.416 31.8737ZM197.877 35.1876C199.204 33.233 200 30.8465 200 28.2533C200 26.7734 199.634 25.3674 199.166 24H187.143C185.816 25.957 184.916 28.3402 184.916 30.9342C184.916 32.4134 185.178 33.8242 185.645 35.1908H197.877" fill="#C3002F"/>
<rect opacity="0.4" x="99.9202" width="1" height="60" fill="white"/>
</svg>
